<?xml version="1.0" standalone="no"?>
<!DOCTYPE svg PUBLIC "-//W3C//DTD SVG 20010904//EN"
 "http://www.w3.org/TR/2001/REC-SVG-20010904/DTD/svg10.dtd">
<svg version="1.0" xmlns="http://www.w3.org/2000/svg"
 width="1992.000000pt" height="1492.000000pt" viewBox="0 0 1992.000000 1492.000000"
 preserveAspectRatio="xMidYMid meet">

<g transform="translate(0.000000,1492.000000) scale(0.100000,-0.100000)"
fill="#000000" stroke="none">
<path d="M10450 9293 c-12 -16 -34 -41 -49 -58 -18 -21 -14 -19 14 8 23 20 44
37 47 37 4 0 9 -12 11 -27 2 -17 5 -10 6 20 0 26 0 47 -2 47 -2 0 -14 -12 -27
-27z"/>
<path d="M10852 9295 c-13 -15 -22 -28 -20 -30 7 -7 50 35 46 45 -2 6 -14 -1
-26 -15z"/>
<path d="M11185 9223 c-49 -54 -94 -102 -100 -108 -6 -5 -32 -35 -59 -65 -27
-30 -3 -8 53 50 171 175 204 211 199 216 -3 2 -45 -40 -93 -93z"/>
<path d="M10789 9223 c-13 -16 -12 -17 4 -4 9 7 17 15 17 17 0 8 -8 3 -21 -13z"/>
<path d="M10472 9200 c0 -14 2 -19 5 -12 2 6 2 18 0 25 -3 6 -5 1 -5 -13z"/>
<path d="M10291 9116 l-75 -81 79 77 c44 43 77 79 75 81 -3 3 -38 -32 -79 -77z"/>
<path d="M10749 9183 c-13 -16 -12 -17 4 -4 9 7 17 15 17 17 0 8 -8 3 -21 -13z"/>
<path d="M10472 9135 c0 -16 2 -22 5 -12 2 9 2 23 0 30 -3 6 -5 -1 -5 -18z"/>
<path d="M10691 9122 c-12 -15 -35 -40 -49 -57 -15 -16 -1 -5 31 25 31 30 57
56 57 57 0 10 -19 -1 -39 -25z"/>
<path d="M10191 9013 c-7 -8 -11 -16 -8 -19 2 -2 10 2 17 11 17 20 9 27 -9 8z"/>
<path d="M10589 9013 c-13 -16 -12 -17 4 -4 9 7 17 15 17 17 0 8 -8 3 -21 -13z"/>
<path d="M10155 8969 c-4 -6 -5 -12 -2 -15 2 -3 7 2 10 11 7 17 1 20 -8 4z"/>
<path d="M9291 8890 c-34 -27 -60 -50 -56 -50 15 0 62 30 84 54 32 34 43 33
88 -8 21 -18 66 -53 99 -77 34 -24 142 -105 240 -179 99 -75 195 -146 214
-159 l35 -23 -30 27 c-29 25 -93 74 -422 323 -89 67 -165 127 -168 132 -10 16
-19 12 -84 -40z"/>
<path d="M9155 8788 c-28 -22 -60 -48 -73 -59 -12 -10 -24 -19 -27 -19 -8 0
-139 -104 -143 -112 -2 -5 -8 -8 -13 -8 -5 0 -38 -21 -73 -47 -35 -27 -87 -64
-114 -83 -28 -19 -49 -36 -47 -38 1 -2 44 25 95 60 131 90 122 83 273 198 76
58 150 112 164 121 13 9 21 19 16 22 -4 3 -31 -13 -58 -35z"/>
<path d="M10006 8436 c3 -9 13 -16 22 -16 8 0 13 1 11 3 -2 1 -12 9 -22 16
-15 12 -17 12 -11 -3z"/>
<path d="M8625 8360 c3 -5 8 -10 11 -10 2 0 4 5 4 10 0 6 -5 10 -11 10 -5 0
-7 -4 -4 -10z"/>
<path d="M10065 8360 c3 -5 8 -10 11 -10 2 0 4 5 4 10 0 6 -5 10 -11 10 -5 0
-7 -4 -4 -10z"/>
<path d="M8728 8093 c-10 -2 -18 -9 -18 -14 0 -12 14 -11 27 2 8 8 17 8 32 0
12 -7 21 -8 21 -2 0 5 -7 12 -16 15 -17 6 -19 6 -46 -1z"/>
<path d="M9008 8093 c7 -3 16 -2 19 1 4 3 -2 6 -13 5 -11 0 -14 -3 -6 -6z"/>
<path d="M9040 8090 c0 -5 5 -10 11 -10 5 0 7 5 4 10 -3 6 -8 10 -11 10 -2 0
-4 -4 -4 -10z"/>
<path d="M9560 8091 c0 -5 9 -11 20 -14 24 -6 27 8 4 17 -21 8 -24 8 -24 -3z"/>
<path d="M9667 8093 c-14 -13 -7 -25 8 -13 8 6 24 9 37 5 18 -5 20 -4 8 4 -17
12 -43 14 -53 4z"/>
<path d="M9795 8090 c-3 -5 -1 -10 4 -10 6 0 11 5 11 10 0 6 -2 10 -4 10 -3 0
-8 -4 -11 -10z"/>
<path d="M8850 8079 c0 -5 5 -7 10 -4 6 3 10 8 10 11 0 2 -4 4 -10 4 -5 0 -10
-5 -10 -11z"/>
<path d="M9518 8083 c7 -3 16 -2 19 1 4 3 -2 6 -13 5 -11 0 -14 -3 -6 -6z"/>
<path d="M8710 7910 c0 -5 7 -7 15 -4 8 4 15 8 15 10 0 2 -7 4 -15 4 -8 0 -15
-4 -15 -10z"/>
<path d="M8856 7911 c-4 -5 3 -7 14 -4 23 6 26 13 6 13 -8 0 -17 -4 -20 -9z"/>
<path d="M8998 7913 c6 -2 18 -2 25 0 6 3 1 5 -13 5 -14 0 -19 -2 -12 -5z"/>
<path d="M9133 7913 c9 -2 23 -2 30 0 6 3 -1 5 -18 5 -16 0 -22 -2 -12 -5z"/>
<path d="M9520 7916 c0 -2 18 -6 40 -8 22 -2 40 0 40 4 0 5 -18 8 -40 8 -22 0
-40 -2 -40 -4z"/>
<path d="M9668 7913 c7 -3 16 -2 19 1 4 3 -2 6 -13 5 -11 0 -14 -3 -6 -6z"/>
<path d="M9795 7910 c-3 -6 1 -7 9 -4 18 7 21 14 7 14 -6 0 -13 -4 -16 -10z"/>
<path d="M9930 7916 c0 -2 16 -6 35 -8 19 -2 35 0 35 4 0 4 -16 8 -35 8 -19 0
-35 -2 -35 -4z"/>
<path d="M9718 7903 c7 -3 16 -2 19 1 4 3 -2 6 -13 5 -11 0 -14 -3 -6 -6z"/>
<path d="M9650 7849 c0 -5 11 -9 25 -9 14 0 25 2 25 4 0 2 -11 6 -25 8 -14 3
-25 1 -25 -3z"/>
<path d="M8748 7843 c6 -2 18 -2 25 0 6 3 1 5 -13 5 -14 0 -19 -2 -12 -5z"/>
<path d="M8868 7843 c6 -2 18 -2 25 0 6 3 1 5 -13 5 -14 0 -19 -2 -12 -5z"/>
<path d="M9013 7843 c9 -2 23 -2 30 0 6 3 -1 5 -18 5 -16 0 -22 -2 -12 -5z"/>
<path d="M9148 7843 c7 -3 16 -2 19 1 4 3 -2 6 -13 5 -11 0 -14 -3 -6 -6z"/>
<path d="M9548 7843 c6 -2 18 -2 25 0 6 3 1 5 -13 5 -14 0 -19 -2 -12 -5z"/>
<path d="M9813 7843 c9 -2 25 -2 35 0 9 3 1 5 -18 5 -19 0 -27 -2 -17 -5z"/>
<path d="M9948 7843 c6 -2 18 -2 25 0 6 3 1 5 -13 5 -14 0 -19 -2 -12 -5z"/>
<path d="M8714 7735 c-10 -26 1 -35 13 -10 6 14 7 25 2 25 -5 0 -12 -7 -15
-15z"/>
<path d="M8770 7735 c7 -9 15 -13 17 -11 7 7 -7 26 -19 26 -6 0 -6 -6 2 -15z"/>
<path d="M9035 7740 c3 -5 11 -10 16 -10 6 0 7 5 4 10 -3 6 -11 10 -16 10 -6
0 -7 -4 -4 -10z"/>
<path d="M9558 7743 c7 -3 16 -2 19 1 4 3 -2 6 -13 5 -11 0 -14 -3 -6 -6z"/>
<path d="M9660 7746 c0 -2 16 -6 35 -8 19 -2 35 0 35 4 0 4 -16 8 -35 8 -19 0
-35 -2 -35 -4z"/>
<path d="M9795 7740 c-3 -5 -1 -10 4 -10 6 0 11 5 11 10 0 6 -2 10 -4 10 -3 0
-8 -4 -11 -10z"/>
<path d="M9845 7740 c3 -5 8 -10 11 -10 2 0 4 5 4 10 0 6 -5 10 -11 10 -5 0
-7 -4 -4 -10z"/>
<path d="M8718 7563 c7 -3 16 -2 19 1 4 3 -2 6 -13 5 -11 0 -14 -3 -6 -6z"/>
<path d="M9798 7563 c7 -3 16 -2 19 1 4 3 -2 6 -13 5 -11 0 -14 -3 -6 -6z"/>
<path d="M9948 7563 c12 -2 30 -2 40 0 9 3 -1 5 -23 4 -22 0 -30 -2 -17 -4z"/>
<path d="M9350 6930 l-725 -5 728 -3 c479 -1 727 1 727 8 0 6 -1 9 -2 8 -2 -2
-329 -5 -728 -8z"/>
<path d="M10462 6920 c-8 -13 -8 -20 -2 -20 6 0 13 7 17 15 9 24 -1 27 -15 5z"/>
<path d="M10155 6910 c3 -5 16 -10 28 -9 21 0 21 1 2 9 -28 12 -37 12 -30 0z"/>
<path d="M10408 6913 c7 -3 16 -2 19 1 4 3 -2 6 -13 5 -11 0 -14 -3 -6 -6z"/>
<path d="M5740 6245 c-81 -23 -168 -76 -231 -142 -64 -67 -81 -92 -110 -165
-87 -218 -6 -451 194 -560 62 -33 62 -33 203 -33 139 0 140 0 206 34 60 30 67
37 73 70 10 61 24 196 20 199 -2 2 -34 -11 -70 -28 -92 -44 -206 -66 -262 -51
-91 25 -145 106 -145 217 0 45 6 76 21 106 l22 43 -36 -39 c-19 -21 -35 -35
-35 -31 0 4 -6 3 -12 -2 -18 -14 -56 -22 -60 -14 -4 10 -68 23 -67 13 4 -22
-4 -23 -25 -3 l-25 23 22 38 c65 112 198 148 427 116 94 -13 129 -23 194 -56
44 -22 81 -38 82 -37 1 1 4 57 7 124 l5 122 -76 32 c-65 28 -91 33 -172 36
-63 2 -113 -2 -150 -12z"/>
<path d="M6482 6249 c-11 -4 -39 -62 -76 -155 -203 -517 -227 -579 -257 -664
-12 -36 -27 -71 -32 -77 -7 -10 21 -12 132 -11 78 2 141 6 141 11 0 5 12 42
26 83 l27 75 141 -3 140 -3 9 -45 c5 -25 12 -61 16 -80 l6 -35 133 -3 c72 -1
132 -1 132 1 0 5 -30 146 -65 312 -14 66 -37 172 -50 235 -39 183 -63 296 -72
330 l-8 32 -163 1 c-90 1 -171 -1 -180 -4z m163 -291 c4 -29 15 -96 26 -150
10 -53 19 -99 19 -102 0 -3 -41 -6 -91 -6 -83 0 -90 2 -84 18 4 9 28 79 54
154 25 76 51 138 58 138 6 0 14 -23 18 -52z"/>
<path d="M11656 6249 c-162 -40 -312 -178 -367 -336 -36 -105 -23 -267 29
-369 28 -55 122 -140 189 -172 54 -25 67 -27 193 -27 125 0 139 2 190 26 90
43 88 41 99 164 5 61 7 112 6 113 -2 2 -32 -10 -68 -27 -85 -41 -187 -64 -243
-55 -79 11 -142 71 -164 156 -13 46 2 147 28 187 l16 26 -22 -19 c-12 -11 -22
-25 -22 -32 0 -20 -19 -27 -37 -12 -15 11 -16 11 -10 -5 4 -10 3 -16 -2 -12
-5 3 -12 1 -16 -5 -8 -13 -45 -13 -45 0 0 6 -9 6 -25 0 -14 -5 -25 -6 -25 -1
0 10 -26 9 -36 -2 -14 -14 -20 -6 -22 29 -2 25 1 34 9 28 7 -4 9 -3 6 3 -10
16 85 101 133 119 56 22 244 24 345 5 39 -7 104 -30 145 -50 41 -20 78 -37 81
-39 4 -1 7 26 8 60 1 35 5 87 10 117 10 63 4 71 -86 109 -45 19 -80 25 -158
28 -55 2 -117 -1 -139 -7z"/>
<path d="M7152 6103 c-7 -82 -22 -254 -33 -383 -12 -129 -22 -266 -23 -305
l-1 -70 120 4 c66 2 121 4 122 5 2 1 7 64 12 138 12 163 18 190 40 186 16 -3
74 -112 133 -250 l33 -78 105 0 c58 -1 124 -2 148 -4 23 -1 42 1 42 4 0 13
-33 75 -44 82 -6 4 -8 8 -4 8 10 0 -20 69 -44 103 -11 15 -17 27 -13 27 3 0
-3 17 -14 38 -25 46 -52 124 -40 116 15 -9 10 20 -7 45 -13 18 -14 25 -4 34
10 9 12 8 7 -5 -4 -10 -3 -18 1 -18 4 0 21 -12 37 -26 28 -24 28 -26 6 -19
-15 5 -21 3 -17 -3 3 -6 0 -12 -6 -15 -7 -2 -10 -8 -6 -12 10 -11 89 30 125
66 45 43 76 114 81 181 5 65 -5 131 -18 123 -4 -3 -6 3 -4 12 2 10 -5 29 -16
43 -17 21 -19 22 -14 5 5 -18 4 -18 -6 -2 -6 9 -8 21 -5 27 6 10 -60 57 -89
62 -10 2 -21 -3 -24 -11 -3 -8 0 -11 7 -7 6 4 11 2 11 -3 0 -6 -3 -11 -8 -11
-4 0 -13 -14 -21 -30 -11 -26 -15 -29 -29 -18 -12 10 -14 10 -8 1 4 -8 1 -13
-9 -13 -10 0 -13 -5 -9 -12 5 -7 3 -8 -5 -4 -7 5 -26 10 -43 13 -22 3 -29 1
-25 -9 2 -7 10 -12 16 -10 6 1 11 -2 11 -7 0 -6 -9 -9 -19 -8 -19 1 -23 30 -7
55 11 17 -15 15 -28 -3 -16 -20 -317 -28 -361 -9 -24 10 -26 13 -9 14 11 0 24
4 30 10 5 5 91 11 192 12 116 2 181 7 178 13 -2 6 -16 9 -32 8 -16 -1 -21 1
-11 4 24 6 12 22 -13 16 -11 -3 -20 0 -20 6 0 6 10 11 23 10 32 -1 68 -13 68
-21 -3 -29 1 -38 13 -38 8 0 17 8 19 18 4 16 5 16 6 0 0 -10 8 -19 16 -19 8
-1 23 -2 32 -3 9 0 18 5 21 13 3 8 0 11 -7 7 -6 -4 -11 -2 -11 4 0 7 7 9 18 5
13 -5 14 -3 5 6 -14 14 -33 4 -33 -19 0 -12 -3 -13 -12 -4 -9 9 -7 16 7 32 10
11 24 20 32 20 8 0 11 5 8 10 -4 6 -110 10 -284 10 l-278 0 -11 -147z m235
131 c-3 -3 -12 -4 -19 -1 -8 3 -5 6 6 6 11 1 17 -2 13 -5z m50 0 c-3 -3 -12
-4 -19 -1 -8 3 -5 6 6 6 11 1 17 -2 13 -5z m-247 -8 c0 -3 -4 -8 -10 -11 -5
-3 -10 -1 -10 4 0 6 5 11 10 11 6 0 10 -2 10 -4z m477 -2 c-3 -3 -12 -4 -19
-1 -8 3 -5 6 6 6 11 1 17 -2 13 -5z m-240 -10 c-3 -3 -12 -4 -19 -1 -8 3 -5 6
6 6 11 1 17 -2 13 -5z m-4 -21 c-7 -2 -19 -2 -25 0 -7 3 -2 5 12 5 14 0 19 -2
13 -5z m90 0 c-13 -2 -35 -2 -50 0 -16 2 -5 4 22 4 28 0 40 -2 28 -4z m283 -6
c20 8 17 -14 -5 -36 -11 -11 -17 -22 -14 -25 3 -2 -9 -4 -26 -4 -21 1 -31 6
-31 16 0 9 3 12 7 9 3 -4 12 1 19 11 12 15 15 15 23 2 6 -8 13 -12 16 -8 3 3
-1 13 -10 21 -8 9 -15 19 -15 23 0 5 5 3 11 -3 6 -6 18 -9 25 -6z m29 -37 c-1
-11 -4 -22 -7 -25 -4 -5 -4 34 1 43 4 8 7 -1 6 -18z m-318 -56 c-3 -3 -12 -4
-19 -1 -8 3 -5 6 6 6 11 1 17 -2 13 -5z m-107 -8 c0 -2 -7 -7 -16 -10 -8 -3
-12 -2 -9 4 6 10 25 14 25 6z m225 -46 c20 -18 25 -33 25 -70 0 -84 -40 -110
-168 -110 l-93 0 2 90 c2 50 6 94 9 99 9 15 43 20 123 17 65 -2 81 -6 102 -26z
m195 -18 c0 -5 -7 -9 -15 -9 -8 0 -15 4 -15 9 0 4 7 8 15 8 8 0 15 -4 15 -8z
m-20 -107 c0 -8 -7 -15 -15 -15 -9 0 -12 6 -9 15 4 8 10 15 15 15 5 0 9 -7 9
-15z m74 -30 c8 -23 -7 -25 -32 -5 -15 12 -18 20 -10 23 18 6 35 -2 42 -18z
m-109 -5 c-3 -5 -1 -10 5 -10 6 0 8 -5 4 -12 -6 -9 -9 -9 -12 0 -5 17 -22 15
-22 -2 0 -8 -5 -16 -11 -18 -9 -3 -9 -10 0 -26 7 -12 9 -27 6 -32 -3 -6 -1
-10 5 -10 14 0 29 40 23 60 -4 12 -3 12 5 2 5 -8 12 -13 16 -13 3 1 6 -1 6 -4
0 -3 0 -10 0 -16 0 -5 -5 -7 -12 -3 -8 5 -9 2 -4 -12 4 -10 4 -15 0 -11 -4 4
-13 2 -20 -4 -9 -7 -19 -7 -36 2 -22 12 -22 12 -3 20 17 6 17 8 3 8 -25 1 -22
33 5 64 21 24 55 38 42 17z m64 -27 c-1 -5 -1 -10 1 -13 8 -23 8 -50 -2 -56
-7 -5 -8 -3 -3 6 6 10 4 12 -10 6 -15 -5 -16 -4 -6 8 9 10 9 16 1 21 -8 5 -8
11 1 21 13 15 20 18 18 7z m-162 -20 c0 -9 -4 -10 -14 -2 -7 6 -13 12 -13 14
0 1 6 2 13 2 8 0 14 -6 14 -14z m-304 -139 c-2 -7 -12 -15 -20 -18 -12 -5 -13
-4 -5 7 7 8 10 16 7 19 -3 2 1 5 9 5 8 0 12 -6 9 -13z m96 2 c7 -8 8 -17 3
-20 -6 -3 -12 3 -15 14 -6 24 -4 25 12 6z m163 -40 c7 4 8 2 4 -5 -9 -13 -26
-5 -25 12 0 9 2 8 6 -1 2 -6 10 -9 15 -6z m-111 -19 c-6 -8 -7 -18 -3 -22 4
-5 1 -5 -6 -1 -10 6 -10 11 -1 22 6 8 14 14 16 14 3 0 0 -6 -6 -13z m-293 -67
c11 0 13 -3 6 -8 -17 -11 -25 -45 -14 -62 8 -13 10 -12 10 3 0 24 15 22 17 -3
1 -13 -4 -20 -15 -20 -16 -1 -16 -1 1 -11 11 -6 17 -22 17 -44 0 -38 -20 -49
-21 -12 0 21 -1 21 -8 2 -5 -11 -6 -26 -4 -32 3 -8 -3 -13 -13 -13 -11 0 -15
4 -9 8 6 4 12 18 14 32 l3 25 -20 -25 -20 -25 2 52 c0 28 3 50 6 48 3 -2 12 1
20 6 13 8 13 10 0 20 -11 8 -12 12 -3 15 8 3 10 18 8 37 -3 18 -3 26 1 20 3
-7 13 -13 22 -13z m465 -74 c20 6 20 6 4 -10 -23 -24 -21 -27 8 -16 18 7 24 6
22 -3 -1 -7 4 -11 12 -9 12 3 12 1 1 -13 -11 -13 -11 -18 -1 -24 9 -6 8 -11
-5 -22 -14 -11 -16 -11 -10 0 7 10 4 12 -13 6 -16 -5 -20 -3 -15 9 3 9 1 16
-5 16 -15 0 -14 -47 2 -53 7 -3 5 -6 -5 -6 -13 -1 -18 7 -18 26 0 26 -1 26
-15 7 -8 -10 -15 -14 -14 -9 3 23 -2 36 -11 30 -6 -3 -10 4 -10 16 0 17 3 20
11 12 22 -22 40 -3 35 36 -3 20 -3 28 0 18 4 -13 11 -16 27 -11z m-363 -31 c0
-7 -30 -13 -34 -7 -3 4 4 9 15 9 10 1 19 0 19 -2z m-205 -56 c-4 -5 0 -9 7
-10 10 0 10 -2 0 -6 -6 -2 -10 -9 -6 -14 3 -5 1 -9 -4 -9 -5 0 -9 14 -10 30 0
17 4 28 9 24 5 -3 7 -10 4 -15z m165 -1 c0 -6 -6 -5 -15 2 -8 7 -15 14 -15 16
0 2 7 1 15 -2 8 -4 15 -11 15 -16z m300 7 c0 -2 -9 -3 -19 -2 -11 0 -18 5 -15
9 4 6 34 0 34 -7z m-277 -20 c-7 -21 -12 -19 -10 4 0 11 5 18 9 15 4 -3 5 -11
1 -19z m277 -1 c0 -8 -19 -13 -24 -6 -3 5 1 9 9 9 8 0 15 -2 15 -3z m34 -12
c3 -5 -1 -9 -9 -9 -8 0 -12 4 -9 9 3 4 7 8 9 8 2 0 6 -4 9 -8z m180 0 c3 -5
-14 -9 -37 -9 l-42 -1 35 8 c19 4 36 8 37 9 1 0 4 -3 7 -7z"/>
<path d="M7750 6144 c0 -8 5 -12 10 -9 6 4 8 11 5 16 -9 14 -15 11 -15 -7z"/>
<path d="M7840 5896 c0 -2 8 -10 18 -17 15 -13 16 -12 3 4 -13 16 -21 21 -21
13z"/>
<path d="M8030 6233 c0 -10 4 -14 8 -8 4 6 11 13 16 18 5 4 2 7 -7 7 -10 0
-17 -8 -17 -17z"/>
<path d="M8508 6243 c6 -2 18 -2 25 0 6 3 1 5 -13 5 -14 0 -19 -2 -12 -5z"/>
<path d="M9140 6220 c-8 -5 -10 -10 -5 -10 6 0 17 5 25 10 8 5 11 10 5 10 -5
0 -17 -5 -25 -10z"/>
<path d="M8617 6209 c7 -7 15 -10 18 -7 3 3 -2 9 -12 12 -14 6 -15 5 -6 -5z"/>
<path d="M8023 6175 c0 -22 2 -30 4 -17 2 12 2 30 0 40 -3 9 -5 -1 -4 -23z"/>
<path d="M9054 6174 c-18 -14 -18 -15 4 -4 12 6 22 13 22 15 0 8 -5 6 -26 -11z"/>
<path d="M7325 6150 c-3 -5 1 -10 10 -10 9 0 13 5 10 10 -3 6 -8 10 -10 10 -2
0 -7 -4 -10 -10z"/>
<path d="M7535 6150 c-3 -5 -1 -10 4 -10 6 0 11 5 11 10 0 6 -2 10 -4 10 -3 0
-8 -4 -11 -10z"/>
<path d="M8698 6129 c3 -21 7 -27 13 -18 4 7 3 21 -2 31 -14 25 -16 23 -11
-13z"/>
<path d="M9009 6143 c-13 -16 -12 -17 4 -4 9 7 17 15 17 17 0 8 -8 3 -21 -13z"/>
<path d="M8014 6116 c-3 -8 -4 -29 -2 -48 3 -29 4 -27 8 15 5 48 3 58 -6 33z"/>
<path d="M8717 6095 c-4 -9 -3 -14 2 -11 23 14 19 -117 -5 -198 -4 -10 -2 -16
3 -13 17 11 35 116 28 166 -8 57 -19 80 -28 56z"/>
<path d="M8949 6093 c-13 -16 -12 -17 4 -4 9 7 17 15 17 17 0 8 -8 3 -21 -13z"/>
<path d="M8345 6082 c-38 -2 -73 -6 -77 -10 -4 -4 31 -6 78 -4 53 2 90 -1 99
-8 9 -8 15 -8 20 0 4 6 3 9 -2 8 -4 -1 -17 2 -28 7 -11 6 -51 9 -90 7z"/>
<path d="M8903 6033 c-9 -16 -22 -35 -27 -43 -9 -12 -8 -13 4 -3 17 13 54 73
46 73 -3 0 -13 -12 -23 -27z"/>
<path d="M8243 6023 c-7 -15 -11 -29 -8 -31 3 -3 5 1 5 9 0 11 2 11 10 -1 7
-11 10 -7 10 18 0 39 -2 39 -17 5z"/>
<path d="M8488 5992 c3 -40 0 -51 -23 -72 -21 -20 -40 -26 -98 -31 l-72 -6 71
-1 c53 -2 75 2 84 13 10 12 16 13 26 4 8 -6 14 -10 15 -8 13 63 14 128 3 139
-5 5 -8 -9 -6 -38z m-1 -77 c0 -8 -4 -12 -9 -9 -5 3 -6 10 -3 15 9 13 12 11
12 -6z"/>
<path d="M9179 6023 c-13 -16 -12 -17 4 -4 16 13 21 21 13 21 -2 0 -10 -8 -17
-17z"/>
<path d="M9730 6000 c6 -11 13 -20 16 -20 2 0 0 9 -6 20 -6 11 -13 20 -16 20
-2 0 0 -9 6 -20z"/>
<path d="M9115 5954 c-9 -14 -15 -27 -13 -30 2 -2 12 10 22 26 21 37 15 40 -9
4z"/>
<path d="M8240 5948 c0 -19 2 -20 10 -8 13 19 13 30 0 30 -5 0 -10 -10 -10
-22z"/>
<path d="M11569 5953 c-13 -16 -12 -17 4 -4 9 7 17 15 17 17 0 8 -8 3 -21 -13z"/>
<path d="M8003 5920 c0 -25 2 -35 4 -22 2 12 2 32 0 45 -2 12 -4 2 -4 -23z"/>
<path d="M8851 5934 c0 -11 3 -14 6 -6 3 7 2 16 -1 19 -3 4 -6 -2 -5 -13z"/>
<path d="M7993 5805 c0 -33 2 -45 4 -27 2 18 2 45 0 60 -2 15 -4 0 -4 -33z"/>
<path d="M8689 5843 c-13 -16 -12 -17 4 -4 9 7 17 15 17 17 0 8 -8 3 -21 -13z"/>
<path d="M8690 5791 c0 -6 5 -13 10 -16 8 -5 7 -12 -2 -23 -12 -15 -11 -16 4
-3 14 10 15 18 7 32 -11 21 -19 25 -19 10z"/>
<path d="M9512 5775 c0 -16 2 -22 5 -12 2 9 2 23 0 30 -3 6 -5 -1 -5 -18z"/>
<path d="M7975 5647 c-4 -53 -5 -101 -3 -109 3 -7 8 34 12 91 4 57 5 105 3
108 -3 2 -8 -38 -12 -90z"/>
<path d="M9501 5733 c-1 -6 -4 -20 -7 -30 -5 -17 -5 -17 6 0 6 10 9 23 6 30
-3 9 -5 9 -5 0z"/>
<path d="M8288 5713 c29 -2 74 -2 100 0 26 2 2 3 -53 3 -55 0 -76 -1 -47 -3z"/>
<path d="M8732 5670 c1 -53 -10 -110 -24 -127 -7 -9 -7 -13 0 -13 12 0 16 12
31 81 6 27 7 57 1 75 -8 26 -8 25 -8 -16z"/>
<path d="M8215 5673 c-9 -30 -10 -92 -2 -100 3 -2 8 23 12 57 8 66 2 88 -10
43z"/>
<path d="M9726 5655 c-9 -26 -7 -32 5 -12 6 10 9 21 6 23 -2 3 -7 -2 -11 -11z"/>
<path d="M8490 5621 c0 -34 -37 -78 -73 -86 -12 -3 -56 -6 -97 -8 -62 -3 -58
-4 23 -4 90 0 101 2 122 23 12 12 26 20 30 16 4 -4 6 -2 5 3 -1 6 -2 26 -1 45
1 28 4 32 12 20 9 -12 10 -12 7 -1 -8 29 -28 23 -28 -8z"/>
<path d="M8689 5499 c-21 -40 -64 -81 -109 -105 -25 -12 -39 -23 -32 -24 31
-1 124 76 148 123 8 15 12 27 10 27 -3 0 -10 -10 -17 -21z"/>
<path d="M7950 5366 c0 -14 28 -16 273 -15 149 0 280 3 289 7 10 4 -107 6
-258 4 -201 -2 -279 0 -290 9 -11 9 -14 8 -14 -5z"/>
</g>
</svg>
